<?xml version="1.0" encoding="UTF-8"?>
<svg id="Capa_1" xmlns="http://www.w3.org/2000/svg" version="1.1" viewBox="0 0 325 125">
  <!-- Generator: Adobe Illustrator 29.0.1, SVG Export Plug-In . SVG Version: 2.1.0 Build 192)  -->
  <defs>
    <style>
      .st0 {
        fill: "currentColor";
      }
    </style>
  </defs>
  <polygon class="st0" points="6 107 6 118.1 12.7 118.1 12.7 116.6 7.5 116.6 7.5 107 6 107"/>
  <g fill="currentColor">
    <path class="st0" d="M14.7,107.6h0c0,.5-.3.8-.7.8s-.7-.3-.7-.7h0c0-.5.3-.8.7-.8s.7.3.7.7M13.3,110h1.4v8.1h-1.4v-8.1Z"/>
    <path class="st0" d="M18.2,108.9v1h1.5v1h-1.5v7h-1.4v-7h-1.2v-1h1.2v-.9c0-1.2,1-2.1,2.1-2.1h1.7v1.2h-1.7c-.5,0-.8.4-.8.8"/>
    <path class="st0" d="M27.4,114.3h-6.1c0,1.4.7,2.7,2.3,2.7s1.7-.6,2.1-1.5h1.5c-.4,1.6-1.9,2.6-3.6,2.6-2.6,0-3.8-1.8-3.8-4.2s1.2-4.2,3.8-4.2,3.8,1.8,3.8,4.1,0,.3,0,.5M26,113.1c-.2-1.2-1-2.2-2.3-2.2s-2.1,1-2.3,2.2h4.6Z"/>
    <path class="st0" d="M35.2,107.6h0c0,.5-.3.8-.7.8s-.7-.3-.7-.7h0c0-.5.3-.8.7-.8s.7.3.7.7M33.8,110h1.4v8.1h-1.4v-8.1Z"/>
    <path class="st0" d="M42.9,115.6c0,1.7-1.7,2.6-3.2,2.6s-3.1-.7-3.4-2.6l1.3-.2c.2,1.2.9,1.7,2.1,1.7s1.9-.3,1.9-1.3-.1-.5-.4-.7c-.2-.1-.6-.3-1.4-.5-1-.3-1.7-.5-2.1-.6-.7-.3-1.2-1-1.2-1.9,0-1.6,1.5-2.3,3-2.3s2.2.2,2.7,1c.2.3.4.7.5,1.2l-1.3.2c-.1-1-.8-1.3-1.8-1.3s-1.7.1-1.7,1,.3.7.7.8c.1,0,.5.2,1.2.3,1,.3,1.6.5,2,.6.8.4,1.2,1,1.2,1.9"/>
    <path class="st0" d="M57.3,114.9c0,2.1-1.9,3.3-3.9,3.3s-1.7-.1-2.4-.4c-1.3-.6-2-1.9-2.1-3.3h1.3c.2,1.6,1.3,2.4,3.1,2.4s1.8-.2,2.3-.9c.2-.3.3-.6.3-1,0-.9-.5-1.3-1.2-1.6-.3-.1-1.1-.3-2.1-.6-1.7-.4-3.5-1-3.5-3.1s.2-1.1.5-1.6c.7-1.2,2.1-1.5,3.4-1.5,2.1,0,3.9,1.1,4,3.4h-1.3c-.2-1.4-1.2-2.1-2.7-2.1s-1.6.2-1.9.5c-.4.3-.6.7-.6,1.2s.1.7.4,1c.3.3,1,.5,2.1.8,1.1.3,2.1.5,2.5.7,1.1.5,1.8,1.5,1.8,2.7"/>
    <path class="st0" d="M64.5,112.3v5.7h-1.4v-5.6c0-.8-.6-1.3-1.4-1.3-1.3,0-2,1.2-2,2v4.9h-1.4v-11.1h1.4v3.9s.9-1,2.3-1,2.5,1,2.5,2.5"/>
    <path class="st0" d="M73.2,113.9c0,1-.2,1.9-.5,2.5-.7,1.2-1.9,1.9-3.3,1.9-2.6,0-3.8-1.8-3.8-4.2s1.2-4.2,3.8-4.2,3.8,1.8,3.8,4.1M71.8,113.9c0-1.5-.7-3-2.4-3s-2.4,1.6-2.4,3.1.6,3.1,2.4,3.1,2.4-1.6,2.4-3.1"/>
    <path class="st0" d="M78.6,109.7v1.3c-.9,0-3,.3-3,2.5v4.6h-1.4v-4.7c0-3.2,2.3-3.6,4.4-3.6"/>
    <path class="st0" d="M83.4,116.8v1.2h-1.2c-1.2,0-2.1-1-2.1-2.1v-4.9h-1.3v-1h1.2v-2h1.4v2h1.5v1h-1.5v5c0,.5.4.8.8.8h1.2Z"/>
    <path class="st0" d="M85.3,117.3c0-.6.4-1,.9-1s.9.4.9,1-.4,1-.9,1-1-.4-.9-1M90.6,117.3c0-.6.4-1,1-1s.9.4.9,1c0,.6-.4,1-1,1s-1-.4-.9-1M95.8,117.3c0-.6.4-1,1-1s.9.4.9,1-.4,1-1,1-.9-.4-.9-1"/>
    <path class="st0" d="M108.9,112.5c0,3.3-1.7,5.6-5.2,5.6h-3.6v-11.1h3.6c3.6,0,5.2,2.5,5.2,5.5M107.4,112.5c0-2.2-.8-4-3.6-4h-2.1v8.1h2.1c2.7,0,3.6-1.7,3.6-4.1"/>
    <path class="st0" d="M117.3,113.9c0,1-.2,1.9-.5,2.5-.7,1.2-1.9,1.9-3.3,1.9-2.6,0-3.8-1.8-3.8-4.2s1.2-4.2,3.8-4.2,3.8,1.8,3.8,4.1M115.9,113.9c0-1.5-.7-3-2.4-3s-2.4,1.6-2.4,3.1.6,3.1,2.4,3.1,2.4-1.6,2.4-3.1"/>
    <path class="st0" d="M125.1,107.6h0c0,.5-.3.8-.7.8s-.7-.3-.7-.7h0c0-.5.3-.8.7-.8s.7.3.7.7M123.7,110h1.4v8.1h-1.4v-8.1Z"/>
    <path class="st0" d="M130.5,116.8v1.2h-1.2c-1.2,0-2.1-1-2.1-2.1v-4.9h-1.3v-1h1.2v-2h1.4v2h1.5v1h-1.5v5c0,.5.4.8.8.8h1.2Z"/>
    <path class="st0" d="M145.9,118.1h-1.9l-3.2-4.2h-2.7v4.2h-1.5v-11.1h4.9c1.8,0,3.3,1.5,3.3,3.3v.2c0,1.5-1,2.7-2.3,3.2l3.3,4.4ZM141.6,112.3c1,0,1.8-.8,1.8-1.8v-.3c0-1-.8-1.8-1.8-1.8h-3.4v3.9h3.4Z"/>
    <path class="st0" d="M148,107.6h0c0,.5-.3.8-.7.8s-.7-.3-.7-.7h0c0-.5.3-.8.7-.8s.7.3.7.7M146.7,110h1.4v8.1h-1.4v-8.1Z"/>
    <path class="st0" d="M156.2,110v8.7c0,1.4-1.2,2.6-2.6,2.6h-3.9v-1.2h3.8c.8,0,1.5-.7,1.5-1.5v-1.2c-.5.5-1.1.8-2,.8s-1.7-.3-2.4-.9c-.8-.7-1.2-1.8-1.2-3.3,0-2.3,1.1-4.2,3.6-4.2s1.5.3,2,.8v-.6h1.4ZM154.8,113.3c0-.9-.7-2.4-2-2.4s-2.3,1.6-2.3,3,.3,3.1,2.2,3.1,2.1-1.2,2.1-2.5v-1.2Z"/>
    <path class="st0" d="M163.8,112.3v5.7h-1.4v-5.6c0-.8-.6-1.3-1.4-1.3-1.3,0-2,1.2-2,2v4.9h-1.4v-11.1h1.4v3.9s.9-1,2.3-1,2.5,1,2.5,2.5"/>
    <path class="st0" d="M169,116.8v1.2h-1.2c-1.2,0-2.1-1-2.1-2.1v-4.9h-1.3v-1h1.2v-2h1.4v2h1.5v1h-1.5v5c0,.5.4.8.8.8h1.2Z"/>
    <path class="st0" d="M110.5,34.7l-4.7-2c-.8-.3-1.8,0-2.1.8-.3.8,0,1.8.8,2.1l5.7,2.4c-.3-1.1-.2-2.3.2-3.4"/>
    <path class="st0" d="M98.5,29.6l-7.4-3.1c-.8-.3-1.8,0-2.1.8-.3.8,0,1.8.8,2.1l7.4,3.1c.2,0,.4.1.6.1.6,0,1.2-.4,1.5-1,.3-.8,0-1.8-.8-2.1"/>
    <path class="st0" d="M144.2,33.1l-8,.7c-.9,0-1.5.9-1.4,1.7,0,.8.8,1.5,1.6,1.5s0,0,.1,0l8-.7c.9,0,1.5-.9,1.4-1.7,0-.9-.9-1.5-1.7-1.4"/>
    <path class="st0" d="M83.7,23.3l-7.4-3.1c-.8-.3-1.8,0-2.1.8-.3.8,0,1.8.8,2.1l7.4,3.1c.2,0,.4.1.6.1.6,0,1.2-.4,1.5-1,.3-.8,0-1.8-.8-2.1"/>
    <path class="st0" d="M128.3,34.6l-8,.7c-.3,0-.5.1-.7.2.2.9.2,1.8,0,2.7.3.2.6.3.9.3s0,0,.1,0l8-.7c.9,0,1.5-.9,1.4-1.7,0-.9-.9-1.5-1.7-1.4"/>
    <path class="st0" d="M24.8,36.3l-7.1,3.6c-.8.4-1.1,1.4-.7,2.1.3.6.8.9,1.4.9s.5,0,.7-.2l7.1-3.6c.8-.4,1.1-1.4.7-2.1-.4-.8-1.4-1.1-2.1-.7"/>
    <path class="st0" d="M39.1,29.1l-7.1,3.6c-.8.4-1.1,1.4-.7,2.1.3.6.8.9,1.4.9s.5,0,.7-.2l7.1-3.6c.8-.4,1.1-1.4.7-2.1-.4-.8-1.4-1.1-2.1-.7"/>
    <path class="st0" d="M53.3,21.9l-7.1,3.6c-.8.4-1.1,1.4-.7,2.1.3.6.8.9,1.4.9s.5,0,.7-.2l7.1-3.6c.8-.4,1.1-1.4.7-2.1-.4-.8-1.4-1.1-2.1-.7"/>
    <path class="st0" d="M159.4,31.8l-7.3.7c-.9,0-1.5.9-1.4,1.7,0,.8.8,1.5,1.6,1.5s0,0,.1,0l7.7-.7c-.5-.9-.8-2.1-.7-3.1"/>
    <path class="st0" d="M246.6,23.2l-6.5-4.6c-.7-.5-1.7-.3-2.2.4-.5.7-.3,1.7.4,2.2l6.5,4.6c.3.2.6.3.9.3.5,0,1-.2,1.3-.7.5-.7.3-1.7-.4-2.2"/>
    <path class="st0" d="M233.6,14l-6-4.2c-.3,1-1,2-1.9,2.6l6,4.3c.3.2.6.3.9.3.5,0,1-.2,1.3-.7.5-.7.3-1.7-.4-2.2"/>
    <path class="st0" d="M259.6,32.5l-6.5-4.6c-.7-.5-1.7-.3-2.2.4-.5.7-.3,1.7.4,2.2l6.5,4.6c.3.2.6.3.9.3.5,0,1-.2,1.3-.7.5-.7.3-1.7-.4-2.2"/>
    <path class="st0" d="M176.7,27.6c-.4-.8-1.3-1.2-2.1-.8l-6.3,2.7c.6.9.8,2.1.7,3.2l6.8-2.9c.8-.3,1.2-1.3.8-2.1"/>
    <path class="st0" d="M268,38.4l-1.9-1.3c-.7-.5-1.7-.3-2.2.4-.5.7-.3,1.7.4,2.2l1.9,1.3c.3.2.6.3.9.3.5,0,1-.2,1.3-.7.5-.7.3-1.7-.4-2.2"/>
    <path class="st0" d="M189.3,20.4l-7.3,3.2c-.8.3-1.2,1.3-.8,2.1.3.6.9,1,1.5,1s.4,0,.6-.1l7.3-3.2c.8-.3,1.2-1.3.8-2.1-.4-.8-1.3-1.2-2.1-.8"/>
    <path class="st0" d="M204,14l-7.3,3.2c-.8.3-1.2,1.3-.8,2.1.3.6.9,1,1.5,1s.4,0,.6-.1l7.3-3.2c.8-.3,1.2-1.3.8-2.1-.4-.8-1.3-1.2-2.1-.8"/>
    <path class="st0" d="M218.2,7.9l-6.9,3c-.8.3-1.2,1.3-.8,2.1.3.6.8,1,1.5,1s.4,0,.6-.1l6.5-2.8c-.6-.9-.9-2-.8-3.1"/>
    <path class="st0" d="M121.8,36.6c0,3.7-3,6.8-6.8,6.8s-6.8-3-6.8-6.8,3-6.8,6.8-6.8,6.8,3,6.8,6.8M115.1,33.3c-1.9,0-3.4,1.5-3.4,3.4s1.5,3.4,3.4,3.4,3.4-1.5,3.4-3.4-1.5-3.4-3.4-3.4"/>
    <path class="st0" d="M72.4,18.3c0,3.7-3,6.8-6.8,6.8s-6.8-3-6.8-6.8,3-6.8,6.8-6.8,6.8,3,6.8,6.8M65.6,14.9c-1.9,0-3.4,1.5-3.4,3.4s1.5,3.4,3.4,3.4,3.4-1.5,3.4-3.4-1.5-3.4-3.4-3.4"/>
    <path class="st0" d="M172.4,32.6c0,3.7-3,6.8-6.8,6.8s-6.8-3-6.8-6.8,3-6.8,6.8-6.8,6.8,3,6.8,6.8M165.6,29.2c-1.9,0-3.4,1.5-3.4,3.4s1.5,3.4,3.4,3.4,3.4-1.5,3.4-3.4-1.5-3.4-3.4-3.4"/>
    <path class="st0" d="M229,9.8c0,3.7-3,6.8-6.8,6.8s-6.8-3-6.8-6.8,3-6.8,6.8-6.8,6.8,3,6.8,6.8M222.2,6.4c-1.9,0-3.4,1.5-3.4,3.4s1.5,3.4,3.4,3.4,3.4-1.5,3.4-3.4-1.5-3.4-3.4-3.4"/>
    <path class="st0" d="M193.5,118c-2.2-3.1-4.4-6.1-6.5-9.2-3.9-5.7-7.6-11.5-10.6-17.7-1.4-2.9-2.7-5.8-3.2-9-.7-5,.6-9.5,3.4-13.6,4.7-6.9,13.3-10.3,21.3-8.5,8.3,1.9,14.6,8.6,15.9,16.9.6,3.7-.2,7.2-1.6,10.7-2.2,5.5-5.1,10.6-8.4,15.5-3.2,4.8-6.5,9.5-9.8,14.2-.1.2-.3.3-.6.7M193.6,70.2c-5.5,0-9.9,4.3-9.9,9.8,0,5.5,4.3,9.9,9.8,10,5.5,0,10-4.4,10-9.8,0-5.5-4.3-9.9-9.9-10"/>
    <path class="st0" d="M16.3,86.9c0,2.3,1.3,3.5,3.9,3.5h2.8l1.2,7.2c-.8.4-2,.8-3.8,1-1.7.3-3.2.4-4.5.4-3.1,0-5.5-.8-7.3-2.5-1.8-1.7-2.7-4-2.7-7v-40.4h10.3v37.8Z"/>
    <path class="st0" d="M55.6,64.5c2.6,1.2,4.4,3.1,5.6,5.8s1.8,6.2,1.8,10.7-.6,8-1.8,10.7c-1.2,2.6-3,4.5-5.6,5.7-2.6,1.2-6,1.8-10.4,1.8s-7.9-.6-10.4-1.8c-2.6-1.2-4.4-3.1-5.6-5.7-1.2-2.6-1.8-6.2-1.8-10.7s.6-8.1,1.8-10.7c1.2-2.7,3-4.6,5.6-5.8,2.6-1.2,6.1-1.8,10.4-1.8s7.8.6,10.4,1.8M40.9,71.3c-1,.6-1.7,1.6-2.1,3.1-.4,1.5-.6,3.7-.6,6.5s.2,4.9.6,6.4c.4,1.5,1.1,2.5,2.1,3.1,1,.6,2.4.9,4.3.9s3.2-.3,4.2-.9c1-.6,1.7-1.6,2.1-3.1.4-1.5.6-3.6.6-6.4s-.2-5-.6-6.5c-.4-1.5-1.1-2.5-2.1-3.1-1-.6-2.4-.9-4.2-.9s-3.3.3-4.3.9"/>
    <path class="st0" d="M80.4,86.9c0,2.3,1.3,3.5,3.9,3.5h2.8l1.2,7.2c-.8.4-2,.8-3.8,1s-3.2.4-4.5.4c-3.1,0-5.5-.8-7.3-2.5-1.8-1.7-2.7-4-2.7-7v-40.4h10.3v37.8Z"/>
    <path class="st0" d="M121.2,65.5c2.2,1.9,3.3,5.2,3.3,9.8v22.9h-8.2l-1.1-5.3c-1.4,1.7-3.2,3.2-5.4,4.3-2.2,1.2-4.6,1.8-7.4,1.8s-6-.9-8.1-2.6c-2.1-1.8-3.2-4.2-3.2-7.3v-3.5c0-2.8.9-4.9,2.8-6.4,1.9-1.5,4.5-2.3,7.8-2.3h12.3v-1.5c0-1.8-.5-3-1.2-3.6-.8-.6-2.3-.9-4.5-.9-3.8,0-8.7.2-14.6.6l-1-7c2.5-.5,5.6-.9,9.1-1.2,3.6-.3,6.5-.5,8.9-.5,4.7,0,8.1.9,10.3,2.8M102.4,90.4c.7.6,1.7.9,3.1.9s2.7-.3,4.2-.9c1.5-.6,3-1.4,4.4-2.5v-4.8h-9.3c-1.2,0-2.1.3-2.6.9-.5.6-.8,1.4-.8,2.4v1.3c0,1.2.3,2.1,1,2.7"/>
    <path class="st0" d="M171.4,98.2h-11.3l-3.6-14.8c-.5-1.5-1.1-2.6-1.9-3.2-.8-.6-1.9-.9-3.3-.9h-7.5v18.9h-10.5v-48.4c2.8-.3,5.4-.5,7.8-.5,2.5,0,6-.1,10.6-.1s7.8.4,10.4,1.3c2.6.9,4.5,2.3,5.7,4.4,1.2,2.1,1.8,4.9,1.8,8.6s-.7,6.3-2.1,8.3c-1.4,2-3.8,3.2-7.1,3.6v.4c1.5.3,2.9,1.1,4.2,2.2,1.3,1.1,2.1,2.8,2.7,5.1l4.2,15.1ZM156,70.5c1-.4,1.8-1.1,2.2-2.1.4-1,.7-2.4.7-4.2s-.2-3.2-.7-4.2-1.2-1.6-2.2-2c-1-.4-2.5-.6-4.4-.6-3.6,0-6.2,0-7.7,0v13.6h7.7c1.9,0,3.4-.2,4.4-.6"/>
    <path class="st0" d="M251.4,63.7v34.6h-8.2l-.8-4.8c-2.4,1.9-4.7,3.3-7.1,4.3-2.3.9-4.7,1.4-7.2,1.4-6.5,0-9.7-3.2-9.7-9.6v-25.9h10.4v22.7c0,1.5.2,2.5.8,3.2.6.6,1.5.9,2.9.9s2.5-.2,3.8-.7c1.3-.4,2.9-1.2,4.8-2.2v-23.9h10.3Z"/>
    <path class="st0" d="M273.4,70.6v16.3c0,1.3.3,2.2.8,2.7.6.5,1.5.8,2.9.8h4.4l1.1,7.2c-1.2.4-2.8.8-4.7,1-1.9.3-3.6.4-5,.4-3.1,0-5.6-.9-7.3-2.6-1.7-1.8-2.6-4.2-2.6-7.3v-18.5h-6.1v-6.6l6.1-.4v-9.7h10.3v9.7h9.6v6.9h-9.6Z"/>
    <path class="st0" d="M319.4,90l1,6.4c-1.9.9-4.2,1.5-6.9,2-2.7.4-5.4.6-8.2.6-4.4,0-7.9-.6-10.5-1.9-2.6-1.2-4.5-3.2-5.7-5.8-1.2-2.6-1.8-6.1-1.8-10.4s.6-8.2,1.8-10.8c1.2-2.6,3.1-4.5,5.6-5.7,2.5-1.2,5.9-1.8,10.2-1.8s9.9,1,12.5,3c2.6,2,3.9,5,3.9,9.1,0,3.2-.8,5.6-2.5,7.3-1.7,1.6-4.3,2.4-8,2.4h-12.5c.3,2.5,1.1,4.2,2.3,5.1,1.2.9,3.2,1.3,5.9,1.3s8-.3,12.9-.8M300.9,70.9c-.9.4-1.6,1.2-2.1,2.3-.4,1.1-.7,2.8-.8,4.9h9.8c1.3,0,2.1-.3,2.6-.9.4-.6.7-1.5.7-2.7s-.4-2.8-1.3-3.4c-.9-.6-2.5-.9-4.9-.9s-3,.2-3.9.7"/>
  </g>
</svg>