<?xml version="1.0" encoding="UTF-8"?>
<svg id="Capa_1" xmlns="http://www.w3.org/2000/svg" version="1.1" xmlns:xlink="http://www.w3.org/1999/xlink" viewBox="0 0 487 182.7">
  <!-- Generator: Adobe Illustrator 29.0.1, SVG Export Plug-In . SVG Version: 2.1.0 Build 192)  -->
  <defs>
    <style>
      .st0 {
        fill: #fff;
      }

      .st1 {
        fill: none;
      }

      .st2 {
        clip-path: url(#clippath-1);
      }

      .st3 {
        clip-path: url(#clippath);
      }
    </style>
    <clipPath id="clippath">
      <rect class="st1" y="0" width="487" height="182.7"/>
    </clipPath>
    <clipPath id="clippath-1">
      <rect class="st1" y="0" width="487" height="182.7"/>
    </clipPath>
  </defs>
  <g id="Ilustración_2">
    <g class="st3">
      <polygon class="st0" points="0 160.6 0 177.8 10.3 177.8 10.3 175.5 2.3 175.5 2.3 160.6 0 160.6"/>
      <g class="st2">
        <path class="st0" d="M13.5,161.6v.2c0,.6-.5,1.1-1.1,1.1s-1.1-.5-1.1-1.1v-.2c0-.6.5-1.1,1.1-1.1s1.1.5,1.1,1.1M11.3,165.2h2.1v12.4h-2.1v-12.4Z"/>
        <path class="st0" d="M18.8,163.6v1.6h2.3v1.6h-2.3v10.8h-2.1v-10.8h-1.9v-1.6h1.9v-1.4c0-1.8,1.5-3.3,3.3-3.3h2.7v1.8h-2.6c-.7,0-1.3.6-1.3,1.3"/>
        <path class="st0" d="M33.1,172h-9.4c.1,2.2,1.1,4.2,3.6,4.2s2.6-.9,3.2-2.3h2.3c-.6,2.5-2.9,4-5.5,4-3.9,0-5.8-2.8-5.8-6.5s1.9-6.5,5.8-6.5,5.8,2.7,5.8,6.3,0,.5,0,.7M30.9,170.1c-.3-1.9-1.5-3.5-3.6-3.5s-3.3,1.5-3.6,3.5h7.1Z"/>
        <path class="st0" d="M45.1,161.6v.2c0,.6-.5,1.1-1.1,1.1s-1.1-.5-1.1-1.1v-.2c0-.6.5-1.1,1.1-1.1s1.1.5,1.1,1.1M43,165.2h2.1v12.4h-2.1v-12.4Z"/>
        <path class="st0" d="M57.1,174c0,2.7-2.6,3.9-5,3.9s-4.8-1-5.3-4l2.1-.3c.3,1.8,1.4,2.6,3.2,2.6s2.9-.5,2.9-2-.2-.8-.6-1.1c-.3-.2-1-.4-2.2-.7-1.5-.4-2.6-.7-3.2-1-1.1-.5-1.8-1.6-1.8-2.9,0-2.5,2.4-3.6,4.6-3.6s3.3.3,4.2,1.6c.4.5.6,1.1.7,1.9l-2.1.3c-.2-1.5-1.3-2-2.7-2s-2.7.2-2.7,1.6.5,1.1,1.1,1.3c.2,0,.8.3,1.9.5,1.5.4,2.5.7,3.1,1,1.2.6,1.9,1.5,1.9,2.9"/>
        <path class="st0" d="M79.2,172.9c0,3.3-2.9,5.1-6,5.1s-2.7-.2-3.7-.7c-2.1-.9-3.2-2.9-3.2-5.1l2-.2c.3,2.7,2.1,4,4.8,4s2.8-.4,3.6-1.4c.3-.5.5-1,.5-1.5,0-1.3-.8-2-1.9-2.4-.4-.2-1.7-.5-3.2-.9-2.6-.6-5.4-1.6-5.4-4.8s.2-1.7.7-2.5c1.1-1.8,3.3-2.3,5.2-2.3,3.2,0,6,1.7,6.2,5.2l-2.1.2c-.3-2.4-1.8-3.4-4.1-3.4s-2.4.2-3,.8c-.6.5-.9,1.1-.9,1.8s.2,1.1.6,1.5c.4.4,1.5.8,3.2,1.2,1.7.4,3.3.8,3.9,1.1,1.7.8,2.8,2.3,2.8,4.2"/>
        <path class="st0" d="M90.4,168.9v8.8h-2.1v-8.6c0-1.2-1-2.1-2.2-2.1-2,0-3,1.9-3,3.1v7.6h-2.1v-17.1h2.1v6s1.3-1.6,3.5-1.6,3.9,1.5,3.9,3.9"/>
        <path class="st0" d="M103.7,171.3c0,1.6-.2,2.9-.7,3.8-1,1.9-3,2.9-5.1,2.9-3.9,0-5.8-2.8-5.8-6.5s1.9-6.5,5.8-6.5,5.8,2.7,5.8,6.3M101.6,171.4c0-2.3-1-4.7-3.7-4.7s-3.6,2.4-3.6,4.8.9,4.8,3.6,4.8,3.7-2.5,3.7-4.8"/>
        <path class="st0" d="M112.1,164.8v1.9c-1.3,0-4.6.4-4.6,3.8v7.1h-2.1v-7.2c0-4.9,3.5-5.6,6.8-5.6"/>
        <path class="st0" d="M119.5,175.8v1.8h-1.9c-1.8,0-3.3-1.5-3.3-3.3v-7.5h-1.9v-1.6h1.9v-3.1h2.1v3.1h2.3v1.6h-2.3v7.7c0,.7.6,1.3,1.3,1.3h1.8Z"/>
        <path class="st0" d="M122.5,176.5c0-.9.6-1.5,1.4-1.5s1.4.6,1.4,1.5-.6,1.5-1.4,1.5-1.5-.7-1.4-1.5M130.6,176.5c0-.9.6-1.5,1.5-1.5s1.4.6,1.4,1.5c0,.9-.6,1.5-1.5,1.5s-1.5-.7-1.4-1.5M138.8,176.5c0-.9.6-1.5,1.5-1.5s1.4.6,1.4,1.5-.6,1.5-1.5,1.5-1.4-.7-1.4-1.5"/>
        <path class="st0" d="M159,169.2c0,5.1-2.6,8.6-8,8.6h-5.5v-17.1h5.5c5.6,0,8,3.8,8,8.5M156.6,169.1c0-3.5-1.3-6.2-5.6-6.2h-3.2v12.5h3.2c4.1,0,5.6-2.6,5.6-6.3"/>
        <path class="st0" d="M172,171.3c0,1.6-.2,2.9-.7,3.8-1,1.9-3,2.9-5.1,2.9-3.9,0-5.8-2.8-5.8-6.5s1.9-6.5,5.8-6.5,5.8,2.7,5.8,6.3M169.8,171.4c0-2.3-1-4.7-3.7-4.7s-3.6,2.4-3.6,4.8.9,4.8,3.6,4.8,3.7-2.5,3.7-4.8"/>
        <path class="st0" d="M183.9,161.6v.2c0,.6-.5,1.1-1.1,1.1s-1.1-.5-1.1-1.1v-.2c0-.6.5-1.1,1.1-1.1s1.1.5,1.1,1.1M181.8,165.2h2.1v12.4h-2.1v-12.4Z"/>
        <path class="st0" d="M192.3,175.8v1.8h-1.9c-1.8,0-3.3-1.5-3.3-3.3v-7.5h-1.9v-1.6h1.9v-3.1h2.1v3.1h2.3v1.6h-2.3v7.7c0,.7.6,1.3,1.3,1.3h1.8Z"/>
        <path class="st0" d="M216.2,177.8h-2.9l-4.9-6.6h-4.2v6.6h-2.3v-17.1h7.5c2.8,0,5.1,2.3,5.1,5.1v.3c0,2.3-1.5,4.2-3.5,4.9l5.1,6.9ZM209.5,168.9c1.5,0,2.7-1.2,2.7-2.7v-.5c0-1.5-1.2-2.7-2.7-2.7h-5.3v6h5.3Z"/>
        <path class="st0" d="M219.4,161.6v.2c0,.6-.5,1.1-1.1,1.1s-1.1-.5-1.1-1.1v-.2c0-.6.5-1.1,1.1-1.1s1.1.5,1.1,1.1M217.3,165.2h2.1v12.4h-2.1v-12.4Z"/>
        <path class="st0" d="M232,165.2v13.4c0,2.2-1.8,4-4.1,4h-6.1v-1.8h5.8c1.2,0,2.3-1,2.3-2.3v-1.9c-.7.7-1.8,1.2-3.2,1.2s-2.7-.5-3.7-1.4c-1.2-1.1-1.8-2.8-1.8-5.1,0-3.6,1.7-6.5,5.5-6.5s2.4.5,3.1,1.3v-1h2.1ZM229.9,170.5c0-1.4-1.1-3.7-3.2-3.7s-3.5,2.4-3.5,4.7.5,4.8,3.3,4.8,3.3-1.9,3.3-3.9v-1.8Z"/>
        <path class="st0" d="M243.7,168.9v8.8h-2.1v-8.6c0-1.2-1-2.1-2.2-2.1-2,0-3,1.9-3,3.1v7.6h-2.1v-17.1h2.1v6s1.3-1.6,3.5-1.6,3.9,1.5,3.9,3.9"/>
        <path class="st0" d="M251.8,175.8v1.8h-1.9c-1.8,0-3.3-1.5-3.3-3.3v-7.5h-1.9v-1.6h1.9v-3.1h2.1v3.1h2.3v1.6h-2.3v7.7c0,.7.6,1.3,1.3,1.3h1.8Z"/>
        <path class="st0" d="M161.4,49l-7.2-3.1c-1.3-.5-2.7,0-3.2,1.3-.5,1.3,0,2.7,1.3,3.2l8.8,3.7c-.4-1.7-.3-3.6.4-5.2"/>
        <path class="st0" d="M142.8,41.1l-11.4-4.8c-1.3-.5-2.7,0-3.2,1.3-.5,1.3,0,2.7,1.3,3.2l11.4,4.8c.3.1.6.2,1,.2,1,0,1.9-.6,2.3-1.5.5-1.3,0-2.7-1.3-3.2"/>
        <path class="st0" d="M213.5,46.6l-12.3,1.1c-1.4.1-2.4,1.3-2.2,2.7.1,1.3,1.2,2.2,2.5,2.2s.1,0,.2,0l12.3-1.1c1.4-.1,2.4-1.3,2.2-2.7-.1-1.4-1.3-2.3-2.7-2.2"/>
        <path class="st0" d="M120.1,31.4l-11.4-4.8c-1.3-.5-2.7,0-3.2,1.3-.5,1.3,0,2.7,1.3,3.2l11.4,4.8c.3.1.6.2,1,.2,1,0,1.9-.6,2.3-1.5.5-1.3,0-2.7-1.3-3.2"/>
        <path class="st0" d="M188.9,48.8l-12.3,1.1c-.4,0-.8.2-1.1.4.3,1.3.3,2.8,0,4.1.4.3.9.4,1.4.4s.1,0,.2,0l12.3-1.1c1.4-.1,2.4-1.3,2.2-2.7-.1-1.4-1.3-2.3-2.7-2.2"/>
        <path class="st0" d="M29,51.5l-11,5.6c-1.2.6-1.7,2.1-1.1,3.3.4.9,1.3,1.4,2.2,1.4s.8,0,1.1-.3l11-5.6c1.2-.6,1.7-2.1,1.1-3.3-.6-1.2-2.1-1.7-3.3-1.1"/>
        <path class="st0" d="M51.1,40.4l-11,5.6c-1.2.6-1.7,2.1-1.1,3.3.4.9,1.3,1.4,2.2,1.4s.8,0,1.1-.3l11-5.6c1.2-.6,1.7-2.1,1.1-3.3-.6-1.2-2.1-1.7-3.3-1.1"/>
        <path class="st0" d="M73.1,29.2l-11,5.6c-1.2.6-1.7,2.1-1.1,3.3.4.9,1.3,1.4,2.2,1.4s.8,0,1.1-.3l11-5.6c1.2-.6,1.7-2.1,1.1-3.3-.6-1.2-2.1-1.7-3.3-1.1"/>
        <path class="st0" d="M237,44.4l-11.2,1c-1.4.1-2.4,1.3-2.2,2.7.1,1.3,1.2,2.2,2.5,2.2s.1,0,.2,0l11.9-1.1c-.8-1.4-1.2-3.2-1.1-4.9"/>
        <path class="st0" d="M371.7,31.3l-10.1-7.1c-1.1-.8-2.7-.5-3.4.6-.8,1.1-.5,2.7.6,3.4l10.1,7.1c.4.3.9.5,1.4.5.8,0,1.5-.4,2-1,.8-1.1.5-2.7-.6-3.4"/>
        <path class="st0" d="M351.5,17l-9.2-6.5c-.5,1.6-1.5,3-3,3.9l9.3,6.6c.4.3.9.5,1.4.5.8,0,1.5-.4,2-1,.8-1.1.5-2.7-.6-3.4"/>
        <path class="st0" d="M391.8,45.6l-10.1-7.1c-1.1-.8-2.7-.5-3.4.6-.8,1.1-.5,2.7.6,3.4l10.1,7.1c.4.3.9.5,1.4.5.8,0,1.5-.4,2-1,.8-1.1.5-2.7-.6-3.4"/>
        <path class="st0" d="M263.7,37.9c-.5-1.3-2-1.8-3.2-1.3l-9.7,4.2c.9,1.5,1.2,3.2,1.1,4.9l10.5-4.6c1.3-.5,1.8-2,1.3-3.2"/>
        <path class="st0" d="M404.8,54.7l-2.9-2c-1.1-.8-2.7-.5-3.4.6-.8,1.1-.5,2.7.6,3.4l2.9,2c.4.3.9.5,1.4.5.8,0,1.5-.4,2-1,.8-1.1.5-2.7-.6-3.4"/>
        <path class="st0" d="M283.1,26.9l-11.3,4.9c-1.3.5-1.8,2-1.3,3.2.4.9,1.3,1.5,2.3,1.5s.7,0,1-.2l11.3-4.9c1.3-.5,1.8-2,1.3-3.2-.5-1.3-2-1.8-3.2-1.3"/>
        <path class="st0" d="M305.8,17.1l-11.3,4.9c-1.3.5-1.8,2-1.3,3.2.4.9,1.3,1.5,2.3,1.5s.7,0,1-.2l11.3-4.9c1.3-.5,1.8-2,1.3-3.2-.5-1.3-2-1.8-3.2-1.3"/>
        <path class="st0" d="M327.9,7.5l-10.7,4.6c-1.3.5-1.8,2-1.3,3.2.4.9,1.3,1.5,2.3,1.5s.7,0,1-.2l10-4.3c-.9-1.4-1.4-3.1-1.3-4.8"/>
        <path class="st0" d="M178.9,52c0,5.8-4.7,10.5-10.5,10.5s-10.5-4.7-10.5-10.5,4.7-10.5,10.5-10.5,10.5,4.7,10.5,10.5M168.5,46.7c-2.9,0-5.2,2.3-5.2,5.2s2.3,5.2,5.2,5.2,5.2-2.3,5.2-5.2-2.3-5.2-5.2-5.2"/>
        <path class="st0" d="M102.6,23.7c0,5.8-4.7,10.5-10.5,10.5s-10.5-4.7-10.5-10.5,4.7-10.5,10.5-10.5,10.5,4.7,10.5,10.5M92.1,18.4c-2.9,0-5.2,2.3-5.2,5.2s2.3,5.2,5.2,5.2,5.2-2.3,5.2-5.2-2.3-5.2-5.2-5.2"/>
        <path class="st0" d="M257,45.7c0,5.8-4.7,10.5-10.5,10.5s-10.5-4.7-10.5-10.5,4.7-10.5,10.5-10.5,10.5,4.7,10.5,10.5M246.6,40.5c-2.9,0-5.2,2.3-5.2,5.2s2.3,5.2,5.2,5.2,5.2-2.3,5.2-5.2-2.3-5.2-5.2-5.2"/>
        <path class="st0" d="M344.4,10.5c0,5.8-4.7,10.5-10.5,10.5s-10.5-4.7-10.5-10.5S328.2,0,334,0s10.5,4.7,10.5,10.5M334,5.2c-2.9,0-5.2,2.3-5.2,5.2s2.3,5.2,5.2,5.2,5.2-2.3,5.2-5.2-2.3-5.2-5.2-5.2"/>
        <path class="st0" d="M289.7,177.6c-3.4-4.8-6.8-9.5-10-14.2-6-8.8-11.7-17.8-16.3-27.4-2.1-4.4-4.2-8.9-4.9-13.8-1.1-7.7.9-14.7,5.2-21.1,7.2-10.7,20.5-15.9,33-13.1,12.9,2.9,22.5,13.2,24.5,26.1.9,5.8-.3,11.2-2.5,16.5-3.4,8.5-7.9,16.4-12.9,24-4.9,7.4-10.1,14.6-15.1,21.9-.2.3-.4.5-.9,1M289.8,103.7c-8.4,0-15.3,6.7-15.4,15.2,0,8.4,6.7,15.4,15.1,15.4,8.5,0,15.4-6.7,15.5-15.2,0-8.5-6.7-15.3-15.2-15.4"/>
        <path class="st0" d="M15.9,129.6c0,3.6,2,5.4,6.1,5.4h4.3l1.8,11.2c-1.2.6-3.2,1.2-5.8,1.6-2.6.4-5,.6-7,.6-4.8,0-8.5-1.3-11.3-3.8C1.4,142,0,138.3,0,133.7v-62.4h15.9v58.4Z"/>
        <path class="st0" d="M76.6,95c4,1.9,6.9,4.9,8.7,8.9s2.7,9.6,2.7,16.5-.9,12.4-2.7,16.5c-1.8,4-4.7,7-8.7,8.8-4,1.8-9.3,2.8-16,2.8s-12.2-.9-16.1-2.8c-4-1.8-6.9-4.8-8.7-8.8-1.8-4-2.7-9.5-2.7-16.5s.9-12.5,2.7-16.6c1.8-4.1,4.7-7.1,8.7-8.9,4-1.8,9.3-2.8,16.1-2.8s12.1.9,16,2.8M53.9,105.6c-1.5.9-2.6,2.5-3.2,4.8-.6,2.3-.9,5.7-.9,10.1s.3,7.6.9,9.9c.6,2.3,1.7,3.9,3.2,4.8,1.5.9,3.7,1.4,6.6,1.4s5-.4,6.5-1.4c1.5-.9,2.6-2.5,3.2-4.8.6-2.3.9-5.6.9-9.9s-.3-7.8-.9-10.1c-.6-2.3-1.7-3.9-3.2-4.8-1.5-.9-3.7-1.4-6.5-1.4s-5.1.5-6.6,1.4"/>
        <path class="st0" d="M114.9,129.6c0,3.6,2,5.4,6.1,5.4h4.3l1.8,11.2c-1.2.6-3.2,1.2-5.8,1.6s-5,.6-7,.6c-4.8,0-8.5-1.3-11.3-3.8-2.7-2.6-4.1-6.2-4.1-10.9v-62.4h15.9v58.4Z"/>
        <path class="st0" d="M177.9,96.6c3.4,2.9,5.1,8,5.1,15.2v35.3h-12.7l-1.6-8.1c-2.2,2.7-5,4.9-8.3,6.7-3.3,1.8-7.1,2.7-11.4,2.7s-9.3-1.4-12.6-4.1c-3.2-2.7-4.9-6.5-4.9-11.3v-5.4c0-4.3,1.4-7.6,4.3-10,2.9-2.4,6.9-3.6,12-3.6h19.1v-2.4c0-2.7-.7-4.6-1.9-5.5-1.2-.9-3.5-1.4-6.9-1.4-5.9,0-13.4.3-22.5.9l-1.5-10.8c3.9-.7,8.6-1.3,14.1-1.8,5.5-.5,10.1-.8,13.8-.8,7.2,0,12.5,1.5,15.9,4.4M148.9,135c1,.9,2.6,1.4,4.8,1.4s4.1-.5,6.5-1.4c2.4-.9,4.7-2.2,6.8-3.8v-7.5h-14.4c-1.9,0-3.2.5-4,1.4-.8.9-1.2,2.1-1.2,3.7v2.1c0,1.9.5,3.3,1.5,4.2"/>
        <path class="st0" d="M255.6,147.1h-17.4l-5.6-22.9c-.7-2.4-1.7-4-2.9-4.9-1.2-.9-2.9-1.4-5.1-1.4h-11.6v29.1h-16.2v-74.7c4.3-.4,8.3-.7,12.1-.8,3.8-.1,9.3-.2,16.4-.2s12.1.7,16,2c4,1.3,6.9,3.6,8.8,6.8,1.9,3.2,2.8,7.6,2.8,13.3s-1.1,9.8-3.3,12.9c-2.2,3.1-5.9,5-11,5.6v.5c2.4.5,4.5,1.6,6.5,3.4,1.9,1.8,3.3,4.4,4.1,7.9l6.5,23.3ZM231.6,104.3c1.6-.6,2.7-1.7,3.4-3.2.7-1.5,1-3.7,1-6.5s-.3-5-1-6.4-1.8-2.5-3.4-3.1c-1.6-.6-3.9-.9-6.8-.9-5.6,0-9.5,0-11.9.1v21h11.9c3,0,5.2-.3,6.8-.9"/>
        <path class="st0" d="M379,93.7v53.4h-12.7l-1.2-7.4c-3.7,3-7.3,5.2-10.9,6.6-3.6,1.4-7.3,2.2-11.2,2.2-10,0-15.1-4.9-15.1-14.8v-40h16v35.1c0,2.3.3,3.9,1.2,4.9.9.9,2.4,1.4,4.5,1.4s3.8-.3,5.9-1c2.1-.7,4.5-1.8,7.4-3.4v-36.9h15.9Z"/>
        <path class="st0" d="M413,104.4v25.2c0,2,.4,3.4,1.3,4.2.9.8,2.4,1.2,4.5,1.2h6.8l1.7,11.2c-1.9.7-4.3,1.2-7.3,1.6-3,.4-5.6.6-7.7.6-4.8,0-8.6-1.4-11.3-4.1-2.7-2.7-4-6.5-4-11.3v-28.6h-9.4v-10.2l9.4-.5v-14.9h15.9v14.9h14.8v10.7h-14.8Z"/>
        <path class="st0" d="M484.1,134.4l1.5,10c-2.9,1.4-6.4,2.4-10.6,3-4.2.7-8.4,1-12.7,1-6.8,0-12.2-1-16.2-2.9-4-1.9-7-4.9-8.8-9-1.8-4.1-2.8-9.4-2.8-16.1s.9-12.7,2.8-16.7c1.8-4.1,4.7-7,8.7-8.8,3.9-1.8,9.2-2.7,15.8-2.7s15.3,1.5,19.3,4.6c4,3.1,6,7.7,6.1,14,0,5-1.3,8.7-3.8,11.2-2.6,2.5-6.7,3.7-12.4,3.7h-19.3c.5,3.9,1.7,6.5,3.5,7.9,1.8,1.3,4.9,2,9.1,2s12.3-.4,19.9-1.2M455.6,104.9c-1.4.7-2.5,1.9-3.2,3.6-.7,1.7-1.1,4.3-1.2,7.6h15.2c1.9,0,3.3-.5,4-1.4.7-.9,1-2.3,1-4.1s-.7-4.3-2.1-5.3c-1.4-1-3.9-1.5-7.6-1.5s-4.6.3-6.1,1"/>
      </g>
    </g>
  </g>
</svg>